REM DIRINDEX 1\2,1\3,1\4,1\5
REM DIRNAME folder01,folder02,folder03,folder04,folder05
TITLE ""
FILE "P1Q_t_0162-0171.mp3" MP3
  TRACK 01 AUDIO
    TITLE "3:cjc005_1387"
    INDEX 01 00:00:00
  TRACK 02 AUDIO
    TITLE "0:"
    INDEX 01 00:01:13
  TRACK 03 AUDIO
    TITLE "4:cjc005_1388"
    INDEX 01 00:01:40
  TRACK 04 AUDIO
    TITLE "0:"
    INDEX 01 00:03:41
  TRACK 05 AUDIO
    TITLE "5:cjc005_1389"
    INDEX 01 00:03:68
  TRACK 06 AUDIO
    TITLE "0:"
    INDEX 01 00:08:34
  TRACK 07 AUDIO
    TITLE "3:cjc005_1390"
    INDEX 01 00:09:16
  TRACK 08 AUDIO
    TITLE "0:"
    INDEX 01 00:10:55
  TRACK 09 AUDIO
    TITLE "4:cjc005_1391"
    INDEX 01 00:11:05
  TRACK 10 AUDIO
    TITLE "0:"
    INDEX 01 00:12:54
  TRACK 11 AUDIO
    TITLE "5:cjc005_1392"
    INDEX 01 00:13:00
  TRACK 12 AUDIO
    TITLE "0:"
    INDEX 01 00:17:51
  TRACK 13 AUDIO
    TITLE "3:cjc005_1393"
    INDEX 01 00:18:29
  TRACK 14 AUDIO
    TITLE "0:"
    INDEX 01 00:19:42
  TRACK 15 AUDIO
    TITLE "4:cjc005_1394"
    INDEX 01 00:19:69
  TRACK 16 AUDIO
    TITLE "0:"
    INDEX 01 00:21:33
  TRACK 17 AUDIO
    TITLE "5:cjc005_1395"
    INDEX 01 00:21:53
  TRACK 18 AUDIO
    TITLE "0:"
    INDEX 01 00:25:68
  TRACK 19 AUDIO
    TITLE "3:cjc005_1396"
    INDEX 01 00:26:42
  TRACK 20 AUDIO
    TITLE "0:"
    INDEX 01 00:27:45
  TRACK 21 AUDIO
    TITLE "4:cjc005_1397"
    INDEX 01 00:27:71
  TRACK 22 AUDIO
    TITLE "0:"
    INDEX 01 00:29:19
  TRACK 23 AUDIO
    TITLE "5:cjc005_1398"
    INDEX 01 00:29:42
  TRACK 24 AUDIO
    TITLE "0:"
    INDEX 01 00:33:62
  TRACK 25 AUDIO
    TITLE "3:cjc005_1399"
    INDEX 01 00:34:32
  TRACK 26 AUDIO
    TITLE "0:"
    INDEX 01 00:35:59
  TRACK 27 AUDIO
    TITLE "4:cjc005_1400"
    INDEX 01 00:36:07
  TRACK 28 AUDIO
    TITLE "0:"
    INDEX 01 00:37:16
  TRACK 29 AUDIO
    TITLE "5:cjc005_1401"
    INDEX 01 00:37:40
  TRACK 30 AUDIO
    TITLE "0:"
    INDEX 01 00:41:53
  TRACK 31 AUDIO
    TITLE "3:cjc005_1402"
    INDEX 01 00:42:29
  TRACK 32 AUDIO
    TITLE "0:"
    INDEX 01 00:43:52
  TRACK 33 AUDIO
    TITLE "4:cjc005_1403"
    INDEX 01 00:44:01
  TRACK 34 AUDIO
    TITLE "0:"
    INDEX 01 00:45:20
  TRACK 35 AUDIO
    TITLE "5:cjc005_1404"
    INDEX 01 00:45:45
  TRACK 36 AUDIO
    TITLE "0:"
    INDEX 01 00:49:14
  TRACK 37 AUDIO
    TITLE "3:cjc005_1405"
    INDEX 01 00:49:61
  TRACK 38 AUDIO
    TITLE "0:"
    INDEX 01 00:50:74
  TRACK 39 AUDIO
    TITLE "4:cjc005_1406"
    INDEX 01 00:51:18
  TRACK 40 AUDIO
    TITLE "0:"
    INDEX 01 00:52:26
  TRACK 41 AUDIO
    TITLE "5:cjc005_1407"
    INDEX 01 00:52:45
  TRACK 42 AUDIO
    TITLE "0:"
    INDEX 01 00:57:13
  TRACK 43 AUDIO
    TITLE "3:cjc005_1408"
    INDEX 01 00:57:62
  TRACK 44 AUDIO
    TITLE "0:"
    INDEX 01 00:59:16
  TRACK 45 AUDIO
    TITLE "4:cjc005_1409"
    INDEX 01 00:59:43
  TRACK 46 AUDIO
    TITLE "0:"
    INDEX 01 01:01:05
  TRACK 47 AUDIO
    TITLE "5:cjc005_1410"
    INDEX 01 01:01:27
  TRACK 48 AUDIO
    TITLE "0:"
    INDEX 01 01:06:06
  TRACK 49 AUDIO
    TITLE "3:cjc005_1411"
    INDEX 01 01:06:57
  TRACK 50 AUDIO
    TITLE "0:"
    INDEX 01 01:07:72
  TRACK 51 AUDIO
    TITLE "4:cjc005_1412"
    INDEX 01 01:08:23
  TRACK 52 AUDIO
    TITLE "0:"
    INDEX 01 01:09:34
  TRACK 53 AUDIO
    TITLE "5:cjc005_1413"
    INDEX 01 01:09:59
  TRACK 54 AUDIO
    TITLE "0:"
    INDEX 01 01:13:20
  TRACK 55 AUDIO
    TITLE "3:cjc005_1414"
    INDEX 01 01:13:73
  TRACK 56 AUDIO
    TITLE "0:"
    INDEX 01 01:15:33
  TRACK 57 AUDIO
    TITLE "4:cjc005_1415"
    INDEX 01 01:15:52
  TRACK 58 AUDIO
    TITLE "0:"
    INDEX 01 01:16:54
  TRACK 59 AUDIO
    TITLE "5:cjc005_1416"
    INDEX 01 01:17:02
  TRACK 60 AUDIO
    TITLE "0:"
    INDEX 01 01:21:41
